<svg width="136" height="83" viewBox="0 0 136 83" fill="none" xmlns="http://www.w3.org/2000/svg">
<path d="M30.67 77.65C39.1033 77.65 45.1167 75.89 48.71 72.37C52.3033 68.7767 54.1 63.9 54.1 57.74C54.1 51.9467 51.8267 47.51 47.28 44.43C42.7333 41.35 35.2533 39.81 24.84 39.81H20.88C20.22 39.81 19.78 39.92 19.56 40.14C19.4133 40.36 19.34 40.7633 19.34 41.35V72.26C19.34 73.9467 19.5233 75.12 19.89 75.78C20.2567 76.3667 21.1 76.77 22.42 76.99C23.3 77.21 24.6567 77.3567 26.49 77.43C28.3233 77.5767 29.7167 77.65 30.67 77.65ZM30.67 5.15999C29.7167 5.15999 28.36 5.19666 26.6 5.27C24.84 5.34333 23.41 5.49 22.31 5.70999C21.0633 5.93 20.2567 6.40666 19.89 7.13999C19.5233 7.87333 19.34 9.04666 19.34 10.66V34.2C19.34 34.86 19.4133 35.3 19.56 35.52C19.78 35.74 20.22 35.85 20.88 35.85H24.84C33.7133 35.85 40.13 34.42 44.09 31.56C48.05 28.6267 50.03 24.74 50.03 19.9C50.03 15.2067 48.4533 11.6133 45.3 9.12C42.22 6.62666 37.3433 5.30666 30.67 5.15999ZM3.06 4.60999C2.76667 4.60999 2.51 4.53666 2.29 4.39C2.07 4.24333 1.96 3.83999 1.96 3.17999C1.96 2.66666 2.07 2.3 2.29 2.07999C2.51 1.86 2.84 1.75 3.28 1.75C5.04 1.67666 7.09333 1.60333 9.44 1.52999C11.7867 1.38333 14.1333 1.27333 16.48 1.2C18.8267 1.12666 21.1 1.05333 23.3 0.979995C25.5 0.906663 27.3333 0.869997 28.8 0.869997C38.6267 0.869997 45.8133 2.48333 50.36 5.70999C54.98 8.93666 57.29 13.3367 57.29 18.91C57.29 23.6033 55.9333 27.4167 53.22 30.35C50.58 33.2833 46.8033 35.3 41.89 36.4C41.45 36.62 41.23 36.8767 41.23 37.17C41.23 37.39 41.4867 37.5367 42 37.61C48.0867 38.4167 52.89 40.6167 56.41 44.21C59.93 47.8033 61.69 52.46 61.69 58.18C61.69 65.66 59.3067 71.49 54.54 75.67C49.7733 79.85 42.0367 81.94 31.33 81.94C29.4967 81.94 27.7 81.94 25.94 81.94C24.2533 81.94 22.7133 81.9033 21.32 81.83C19.9267 81.7567 18.7533 81.6833 17.8 81.61C16.8467 81.61 16.2233 81.61 15.93 81.61C15.6367 81.61 14.83 81.6467 13.51 81.72C12.2633 81.7933 10.87 81.8667 9.33 81.94C7.79 82.0133 6.32333 82.05 4.93 82.05C3.53667 82.1233 2.62 82.16 2.18 82.16C1.74 82.16 1.41 82.05 1.19 81.83C0.97 81.6833 0.86 81.3167 0.86 80.73C0.86 80.1433 0.97 79.7767 1.19 79.63C1.41 79.4833 1.66667 79.3733 1.96 79.3C2.54667 79.3 3.17 79.2633 3.83 79.19C4.49 79.1167 5.15 79.0067 5.81 78.86C6.47 78.7867 7.13 78.64 7.79 78.42C8.45 78.2733 9.14667 78.0167 9.88 77.65C10.32 77.43 10.7967 76.88 11.31 76C11.8967 75.1933 12.19 74.02 12.19 72.48V10.88C12.19 9.41333 11.9333 8.20333 11.42 7.25C10.9067 6.22333 10.1 5.52666 9 5.15999C8.12 4.94 7.16667 4.79333 6.14 4.72C5.11333 4.64666 4.08667 4.60999 3.06 4.60999ZM81.7891 49.6816C82.5052 49.5742 84.0449 48.0345 86.4082 45.0625C88.7715 42.0905 89.9531 39.763 89.9531 38.0801C89.9531 37.8294 89.8636 37.543 89.6846 37.2207C88.9684 37.9368 87.4645 39.9779 85.1729 43.3438C82.917 46.7096 81.7891 48.8223 81.7891 49.6816ZM103.166 57.6846C104.956 55.751 105.959 55.4108 106.174 56.6641C106.174 57.1296 105.887 57.8994 105.314 58.9736C103.56 62.2321 100.874 65.6875 97.2578 69.3398C91.5286 75.1406 86.4619 78.041 82.0576 78.041C79.9808 78.041 78.2083 77.4502 76.7402 76.2686C73.9831 74.0127 72.6045 70.0918 72.6045 64.5059C72.6045 61.319 73.5713 56.8431 75.5049 51.0781C77.4743 45.2773 80.4821 40.0316 84.5283 35.3408C86.3187 33.0492 88.1807 31.9033 90.1143 31.9033C91.0452 31.9033 92.012 32.1003 93.0146 32.4941C95.3779 33.4609 96.5596 35.0186 96.5596 37.167C96.5596 37.4893 96.4521 38.0085 96.2373 38.7246C94.7692 41.625 92.4059 44.973 89.1475 48.7686C85.889 52.5641 82.5768 55.5898 79.2109 57.8457C78.0651 61.9993 77.4922 65.2399 77.4922 67.5674C77.4922 69.8949 77.5459 71.3809 77.6533 72.0254C77.9756 73.5293 79.1751 74.2812 81.252 74.2812C83.3288 74.2812 85.7279 73.3324 88.4492 71.4346C91.1706 69.501 94.071 66.9587 97.1504 63.8076C100.23 60.6566 101.966 58.8841 102.36 58.4902C102.79 58.0964 103.059 57.8278 103.166 57.6846ZM111.223 49.6816C111.939 49.5742 113.479 48.0345 115.842 45.0625C118.205 42.0905 119.387 39.763 119.387 38.0801C119.387 37.8294 119.297 37.543 119.118 37.2207C118.402 37.9368 116.898 39.9779 114.606 43.3438C112.351 46.7096 111.223 48.8223 111.223 49.6816ZM132.6 57.6846C134.39 55.751 135.393 55.4108 135.607 56.6641C135.607 57.1296 135.321 57.8994 134.748 58.9736C132.993 62.2321 130.308 65.6875 126.691 69.3398C120.962 75.1406 115.896 78.041 111.491 78.041C109.414 78.041 107.642 77.4502 106.174 76.2686C103.417 74.0127 102.038 70.0918 102.038 64.5059C102.038 61.319 103.005 56.8431 104.938 51.0781C106.908 45.2773 109.916 40.0316 113.962 35.3408C115.752 33.0492 117.614 31.9033 119.548 31.9033C120.479 31.9033 121.446 32.1003 122.448 32.4941C124.812 33.4609 125.993 35.0186 125.993 37.167C125.993 37.4893 125.886 38.0085 125.671 38.7246C124.203 41.625 121.84 44.973 118.581 48.7686C115.323 52.5641 112.01 55.5898 108.645 57.8457C107.499 61.9993 106.926 65.2399 106.926 67.5674C106.926 69.8949 106.979 71.3809 107.087 72.0254C107.409 73.5293 108.609 74.2812 110.686 74.2812C112.762 74.2812 115.161 73.3324 117.883 71.4346C120.604 69.501 123.505 66.9587 126.584 63.8076C129.663 60.6566 131.4 58.8841 131.794 58.4902C132.224 58.0964 132.492 57.8278 132.6 57.6846Z" fill="url(#paint0_linear_209251_4834)"/>
<defs>
<linearGradient id="paint0_linear_209251_4834" x1="109.184" y1="-33.6154" x2="60.0965" y2="114.035" gradientUnits="userSpaceOnUse">
<stop offset="0.225" stop-color="#704264"/>
<stop offset="0.3825" stop-color="#D09C7B"/>
<stop offset="0.54" stop-color="#C75E1D"/>
<stop offset="0.72" stop-color="#C75E1D"/>
<stop offset="0.945" stop-color="#704264" stop-opacity="0.8"/>
</linearGradient>
</defs>
</svg>
