<svg width="45" height="45" viewBox="0 0 45 45" fill="none" xmlns="http://www.w3.org/2000/svg">
<path d="M43.9601 18.7734C44.241 20.2444 44.3945 21.7845 44.3945 23.3932C44.3945 35.9608 35.8088 44.8984 22.844 44.8984C10.4409 44.8984 0.394531 35.0532 0.394531 22.8984C0.394531 10.7436 10.4409 0.898438 22.844 0.898438C28.9057 0.898438 33.97 3.0845 37.8572 6.63205L31.5284 12.8336V12.8195C29.1716 10.6193 26.1832 9.49204 22.844 9.49204C15.436 9.49204 9.41665 15.6245 9.41665 22.885C9.41665 30.1438 15.4359 36.2911 22.844 36.2911C29.5651 36.2911 34.1385 32.5233 35.08 27.3537H22.844V18.7734H43.9601Z" fill="url(#paint0_linear_209826_2720)"/>
<defs>
<linearGradient id="paint0_linear_209826_2720" x1="22.3945" y1="0.898438" x2="22.3945" y2="44.8984" gradientUnits="userSpaceOnUse">
<stop offset="0.09" stop-color="#DB4437"/>
<stop offset="0.515" stop-color="#F4B400"/>
<stop offset="0.825" stop-color="#0F9D58"/>
<stop offset="1" stop-color="#4285F4"/>
</linearGradient>
</defs>
</svg>
