<svg width="452" height="219" viewBox="0 0 452 219" fill="none" xmlns="http://www.w3.org/2000/svg">
<path d="M7.76697 98.0896C8.54926 140.733 45.4635 173.928 89.4031 173.058C133.343 172.187 169.013 137.554 168.23 94.9104C167.448 52.2671 130.534 19.0717 86.5942 19.9423C42.6547 20.8128 6.98468 55.4462 7.76697 98.0896Z" stroke="url(#paint0_linear_209251_4667)" stroke-width="15" stroke-linejoin="round"/>
<path d="M167.093 155.511C169.566 156.74 172.506 155.703 173.661 153.194C174.816 150.686 173.747 147.656 171.274 146.427L167.093 155.511ZM171.274 146.427L129.091 125.459L124.91 134.543L167.093 155.511L171.274 146.427Z" fill="url(#paint1_linear_209251_4667)"/>
<path d="M213.032 126.928V162H207.208V156.816C206.099 158.608 204.541 160.016 202.536 161.04C200.573 162.021 198.397 162.512 196.008 162.512C193.277 162.512 190.824 161.957 188.648 160.848C186.472 159.696 184.744 157.989 183.464 155.728C182.227 153.467 181.608 150.715 181.608 147.472V126.928H187.368V146.704C187.368 150.16 188.243 152.827 189.992 154.704C191.741 156.539 194.131 157.456 197.16 157.456C200.275 157.456 202.728 156.496 204.52 154.576C206.312 152.656 207.208 149.861 207.208 146.192V126.928H213.032ZM249.105 143.12C249.105 144.229 249.041 145.403 248.913 146.64H220.881C221.095 150.096 222.268 152.805 224.401 154.768C226.577 156.688 229.201 157.648 232.273 157.648C234.791 157.648 236.881 157.072 238.545 155.92C240.252 154.725 241.447 153.147 242.129 151.184H248.402C247.463 154.555 245.585 157.307 242.769 159.44C239.953 161.531 236.455 162.576 232.273 162.576C228.945 162.576 225.959 161.829 223.313 160.336C220.711 158.843 218.663 156.731 217.169 154C215.676 151.227 214.929 148.027 214.929 144.4C214.929 140.773 215.655 137.595 217.105 134.864C218.556 132.133 220.583 130.043 223.185 128.592C225.831 127.099 228.86 126.352 232.273 126.352C235.601 126.352 238.545 127.077 241.105 128.528C243.665 129.979 245.628 131.984 246.993 134.544C248.401 137.061 249.105 139.92 249.105 143.12ZM243.089 141.904C243.089 139.685 242.599 137.787 241.617 136.208C240.636 134.587 239.292 133.371 237.585 132.56C235.921 131.707 234.065 131.28 232.017 131.28C229.073 131.28 226.556 132.219 224.465 134.096C222.417 135.973 221.244 138.576 220.945 141.904H243.089ZM283.033 143.12C283.033 144.229 282.969 145.403 282.841 146.64H254.809C255.022 150.096 256.196 152.805 258.329 154.768C260.505 156.688 263.129 157.648 266.201 157.648C268.718 157.648 270.809 157.072 272.473 155.92C274.18 154.725 275.374 153.147 276.057 151.184H282.329C281.39 154.555 279.513 157.307 276.697 159.44C273.881 161.531 270.382 162.576 266.201 162.576C262.873 162.576 259.886 161.829 257.241 160.336C254.638 158.843 252.59 156.731 251.097 154C249.604 151.227 248.857 148.027 248.857 144.4C248.857 140.773 249.582 137.595 251.033 134.864C252.484 132.133 254.51 130.043 257.113 128.592C259.758 127.099 262.788 126.352 266.201 126.352C269.529 126.352 272.473 127.077 275.033 128.528C277.593 129.979 279.556 131.984 280.921 134.544C282.329 137.061 283.033 139.92 283.033 143.12ZM277.017 141.904C277.017 139.685 276.526 137.787 275.545 136.208C274.564 134.587 273.22 133.371 271.513 132.56C269.849 131.707 267.993 131.28 265.945 131.28C263.001 131.28 260.484 132.219 258.393 134.096C256.345 135.973 255.172 138.576 254.873 141.904H277.017ZM302.049 126.288C306.315 126.288 309.771 127.589 312.417 130.192C315.062 132.752 316.385 136.464 316.385 141.328V162H310.625V142.16C310.625 138.661 309.75 135.995 308.001 134.16C306.251 132.283 303.862 131.344 300.833 131.344C297.761 131.344 295.307 132.304 293.473 134.224C291.681 136.144 290.785 138.939 290.785 142.608V162H284.961V126.928H290.785V131.92C291.937 130.128 293.494 128.741 295.457 127.76C297.462 126.779 299.659 126.288 302.049 126.288Z" fill="url(#paint2_linear_209251_4667)"/>
<path d="M346.67 161.65C355.103 161.65 361.117 159.89 364.71 156.37C368.303 152.777 370.1 147.9 370.1 141.74C370.1 135.947 367.827 131.51 363.28 128.43C358.733 125.35 351.253 123.81 340.84 123.81H336.88C336.22 123.81 335.78 123.92 335.56 124.14C335.413 124.36 335.34 124.763 335.34 125.35V156.26C335.34 157.947 335.523 159.12 335.89 159.78C336.257 160.367 337.1 160.77 338.42 160.99C339.3 161.21 340.657 161.357 342.49 161.43C344.323 161.577 345.717 161.65 346.67 161.65ZM346.67 89.16C345.717 89.16 344.36 89.1967 342.6 89.27C340.84 89.3433 339.41 89.49 338.31 89.71C337.063 89.93 336.257 90.4067 335.89 91.14C335.523 91.8733 335.34 93.0467 335.34 94.66V118.2C335.34 118.86 335.413 119.3 335.56 119.52C335.78 119.74 336.22 119.85 336.88 119.85H340.84C349.713 119.85 356.13 118.42 360.09 115.56C364.05 112.627 366.03 108.74 366.03 103.9C366.03 99.2067 364.453 95.6133 361.3 93.12C358.22 90.6267 353.343 89.3067 346.67 89.16ZM319.06 88.61C318.767 88.61 318.51 88.5367 318.29 88.39C318.07 88.2433 317.96 87.84 317.96 87.18C317.96 86.6667 318.07 86.3 318.29 86.08C318.51 85.86 318.84 85.75 319.28 85.75C321.04 85.6767 323.093 85.6033 325.44 85.53C327.787 85.3833 330.133 85.2733 332.48 85.2C334.827 85.1267 337.1 85.0533 339.3 84.98C341.5 84.9067 343.333 84.87 344.8 84.87C354.627 84.87 361.813 86.4833 366.36 89.71C370.98 92.9367 373.29 97.3367 373.29 102.91C373.29 107.603 371.933 111.417 369.22 114.35C366.58 117.283 362.803 119.3 357.89 120.4C357.45 120.62 357.23 120.877 357.23 121.17C357.23 121.39 357.487 121.537 358 121.61C364.087 122.417 368.89 124.617 372.41 128.21C375.93 131.803 377.69 136.46 377.69 142.18C377.69 149.66 375.307 155.49 370.54 159.67C365.773 163.85 358.037 165.94 347.33 165.94C345.497 165.94 343.7 165.94 341.94 165.94C340.253 165.94 338.713 165.903 337.32 165.83C335.927 165.757 334.753 165.683 333.8 165.61C332.847 165.61 332.223 165.61 331.93 165.61C331.637 165.61 330.83 165.647 329.51 165.72C328.263 165.793 326.87 165.867 325.33 165.94C323.79 166.013 322.323 166.05 320.93 166.05C319.537 166.123 318.62 166.16 318.18 166.16C317.74 166.16 317.41 166.05 317.19 165.83C316.97 165.683 316.86 165.317 316.86 164.73C316.86 164.143 316.97 163.777 317.19 163.63C317.41 163.483 317.667 163.373 317.96 163.3C318.547 163.3 319.17 163.263 319.83 163.19C320.49 163.117 321.15 163.007 321.81 162.86C322.47 162.787 323.13 162.64 323.79 162.42C324.45 162.273 325.147 162.017 325.88 161.65C326.32 161.43 326.797 160.88 327.31 160C327.897 159.193 328.19 158.02 328.19 156.48V94.88C328.19 93.4133 327.933 92.2033 327.42 91.25C326.907 90.2233 326.1 89.5267 325 89.16C324.12 88.94 323.167 88.7933 322.14 88.72C321.113 88.6467 320.087 88.61 319.06 88.61ZM397.789 133.682C398.505 133.574 400.045 132.035 402.408 129.062C404.771 126.09 405.953 123.763 405.953 122.08C405.953 121.829 405.864 121.543 405.685 121.221C404.968 121.937 403.465 123.978 401.173 127.344C398.917 130.71 397.789 132.822 397.789 133.682ZM419.166 141.685C420.956 139.751 421.959 139.411 422.174 140.664C422.174 141.13 421.887 141.899 421.314 142.974C419.56 146.232 416.874 149.688 413.258 153.34C407.529 159.141 402.462 162.041 398.058 162.041C395.981 162.041 394.208 161.45 392.74 160.269C389.983 158.013 388.604 154.092 388.604 148.506C388.604 145.319 389.571 140.843 391.505 135.078C393.474 129.277 396.482 124.032 400.528 119.341C402.319 117.049 404.181 115.903 406.114 115.903C407.045 115.903 408.012 116.1 409.015 116.494C411.378 117.461 412.56 119.019 412.56 121.167C412.56 121.489 412.452 122.008 412.237 122.725C410.769 125.625 408.406 128.973 405.147 132.769C401.889 136.564 398.577 139.59 395.211 141.846C394.065 145.999 393.492 149.24 393.492 151.567C393.492 153.895 393.546 155.381 393.653 156.025C393.976 157.529 395.175 158.281 397.252 158.281C399.329 158.281 401.728 157.332 404.449 155.435C407.171 153.501 410.071 150.959 413.15 147.808C416.23 144.657 417.966 142.884 418.36 142.49C418.79 142.096 419.059 141.828 419.166 141.685ZM427.223 133.682C427.939 133.574 429.479 132.035 431.842 129.062C434.205 126.09 435.387 123.763 435.387 122.08C435.387 121.829 435.297 121.543 435.118 121.221C434.402 121.937 432.898 123.978 430.606 127.344C428.351 130.71 427.223 132.822 427.223 133.682ZM448.6 141.685C450.39 139.751 451.393 139.411 451.607 140.664C451.607 141.13 451.321 141.899 450.748 142.974C448.993 146.232 446.308 149.688 442.691 153.34C436.962 159.141 431.896 162.041 427.491 162.041C425.414 162.041 423.642 161.45 422.174 160.269C419.417 158.013 418.038 154.092 418.038 148.506C418.038 145.319 419.005 140.843 420.938 135.078C422.908 129.277 425.916 124.032 429.962 119.341C431.752 117.049 433.614 115.903 435.548 115.903C436.479 115.903 437.446 116.1 438.448 116.494C440.812 117.461 441.993 119.019 441.993 121.167C441.993 121.489 441.886 122.008 441.671 122.725C440.203 125.625 437.84 128.973 434.581 132.769C431.323 136.564 428.01 139.59 424.645 141.846C423.499 145.999 422.926 149.24 422.926 151.567C422.926 153.895 422.979 155.381 423.087 156.025C423.409 157.529 424.609 158.281 426.686 158.281C428.762 158.281 431.161 157.332 433.883 155.435C436.604 153.501 439.505 150.959 442.584 147.808C445.663 144.657 447.4 142.884 447.794 142.49C448.224 142.096 448.492 141.828 448.6 141.685Z" fill="url(#paint3_linear_209251_4667)"/>
<defs>
<linearGradient id="paint0_linear_209251_4667" x1="160.732" y1="95.059" x2="15.2616" y2="97.7276" gradientUnits="userSpaceOnUse">
<stop offset="0.0825" stop-color="#D6A281"/>
<stop offset="0.215" stop-color="#C75E1D"/>
<stop offset="0.43" stop-color="#704264"/>
<stop offset="0.565" stop-color="#704264"/>
<stop offset="0.8" stop-color="#C75E1D"/>
<stop offset="1" stop-color="#D6A281"/>
</linearGradient>
<linearGradient id="paint1_linear_209251_4667" x1="127.21" y1="129.547" x2="169.982" y2="149.233" gradientUnits="userSpaceOnUse">
<stop offset="0.07" stop-color="#C76A32"/>
<stop offset="0.47" stop-color="#2B404B"/>
<stop offset="0.63" stop-color="#C77647"/>
<stop offset="0.851573" stop-color="#ECCE96"/>
</linearGradient>
<linearGradient id="paint2_linear_209251_4667" x1="260.5" y1="92" x2="260.5" y2="176" gradientUnits="userSpaceOnUse">
<stop offset="0.4" stop-color="#2B404B"/>
<stop offset="1" stop-color="#E5E5E5"/>
</linearGradient>
<linearGradient id="paint3_linear_209251_4667" x1="425.184" y1="50.3846" x2="376.096" y2="198.035" gradientUnits="userSpaceOnUse">
<stop offset="0.225" stop-color="#704264"/>
<stop offset="0.3825" stop-color="#D09C7B"/>
<stop offset="0.54" stop-color="#C75E1D"/>
<stop offset="0.72" stop-color="#C75E1D"/>
<stop offset="0.945" stop-color="#704264" stop-opacity="0.8"/>
</linearGradient>
</defs>
</svg>
