<svg width="302" height="199" viewBox="0 0 302 199" fill="none" xmlns="http://www.w3.org/2000/svg">
<path d="M8.3807 90.3939C9.08061 128.547 41.3249 158.52 79.9971 157.753C118.669 156.987 149.791 125.759 149.091 87.6061C148.391 49.4531 116.147 19.4804 77.4746 20.2466C38.8024 21.0128 7.68079 52.2409 8.3807 90.3939Z" stroke="url(#paint0_linear_209251_4837)" stroke-width="15" stroke-linejoin="round"/>
<path d="M148.093 156.011C150.566 157.24 153.506 156.203 154.661 153.694C155.816 151.186 154.747 148.156 152.274 146.927L148.093 156.011ZM152.274 146.927L110.091 125.959L105.91 135.043L148.093 156.011L152.274 146.927Z" fill="url(#paint1_linear_209251_4837)"/>
<path d="M182.67 151.15C191.103 151.15 197.117 149.39 200.71 145.87C204.303 142.277 206.1 137.4 206.1 131.24C206.1 125.447 203.827 121.01 199.28 117.93C194.733 114.85 187.253 113.31 176.84 113.31H172.88C172.22 113.31 171.78 113.42 171.56 113.64C171.413 113.86 171.34 114.263 171.34 114.85V145.76C171.34 147.447 171.523 148.62 171.89 149.28C172.257 149.867 173.1 150.27 174.42 150.49C175.3 150.71 176.657 150.857 178.49 150.93C180.323 151.077 181.717 151.15 182.67 151.15ZM182.67 78.66C181.717 78.66 180.36 78.6967 178.6 78.77C176.84 78.8433 175.41 78.99 174.31 79.21C173.063 79.43 172.257 79.9067 171.89 80.64C171.523 81.3733 171.34 82.5467 171.34 84.16V107.7C171.34 108.36 171.413 108.8 171.56 109.02C171.78 109.24 172.22 109.35 172.88 109.35H176.84C185.713 109.35 192.13 107.92 196.09 105.06C200.05 102.127 202.03 98.24 202.03 93.4C202.03 88.7067 200.453 85.1133 197.3 82.62C194.22 80.1267 189.343 78.8067 182.67 78.66ZM155.06 78.11C154.767 78.11 154.51 78.0367 154.29 77.89C154.07 77.7433 153.96 77.34 153.96 76.68C153.96 76.1667 154.07 75.8 154.29 75.58C154.51 75.36 154.84 75.25 155.28 75.25C157.04 75.1767 159.093 75.1033 161.44 75.03C163.787 74.8833 166.133 74.7733 168.48 74.7C170.827 74.6267 173.1 74.5533 175.3 74.48C177.5 74.4067 179.333 74.37 180.8 74.37C190.627 74.37 197.813 75.9833 202.36 79.21C206.98 82.4367 209.29 86.8367 209.29 92.41C209.29 97.1033 207.933 100.917 205.22 103.85C202.58 106.783 198.803 108.8 193.89 109.9C193.45 110.12 193.23 110.377 193.23 110.67C193.23 110.89 193.487 111.037 194 111.11C200.087 111.917 204.89 114.117 208.41 117.71C211.93 121.303 213.69 125.96 213.69 131.68C213.69 139.16 211.307 144.99 206.54 149.17C201.773 153.35 194.037 155.44 183.33 155.44C181.497 155.44 179.7 155.44 177.94 155.44C176.253 155.44 174.713 155.403 173.32 155.33C171.927 155.257 170.753 155.183 169.8 155.11C168.847 155.11 168.223 155.11 167.93 155.11C167.637 155.11 166.83 155.147 165.51 155.22C164.263 155.293 162.87 155.367 161.33 155.44C159.79 155.513 158.323 155.55 156.93 155.55C155.537 155.623 154.62 155.66 154.18 155.66C153.74 155.66 153.41 155.55 153.19 155.33C152.97 155.183 152.86 154.817 152.86 154.23C152.86 153.643 152.97 153.277 153.19 153.13C153.41 152.983 153.667 152.873 153.96 152.8C154.547 152.8 155.17 152.763 155.83 152.69C156.49 152.617 157.15 152.507 157.81 152.36C158.47 152.287 159.13 152.14 159.79 151.92C160.45 151.773 161.147 151.517 161.88 151.15C162.32 150.93 162.797 150.38 163.31 149.5C163.897 148.693 164.19 147.52 164.19 145.98V84.38C164.19 82.9133 163.933 81.7033 163.42 80.75C162.907 79.7233 162.1 79.0267 161 78.66C160.12 78.44 159.167 78.2933 158.14 78.22C157.113 78.1467 156.087 78.11 155.06 78.11ZM233.789 123.182C234.505 123.074 236.045 121.535 238.408 118.562C240.771 115.59 241.953 113.263 241.953 111.58C241.953 111.329 241.864 111.043 241.685 110.721C240.968 111.437 239.465 113.478 237.173 116.844C234.917 120.21 233.789 122.322 233.789 123.182ZM255.166 131.185C256.956 129.251 257.959 128.911 258.174 130.164C258.174 130.63 257.887 131.399 257.314 132.474C255.56 135.732 252.874 139.188 249.258 142.84C243.529 148.641 238.462 151.541 234.058 151.541C231.981 151.541 230.208 150.95 228.74 149.769C225.983 147.513 224.604 143.592 224.604 138.006C224.604 134.819 225.571 130.343 227.505 124.578C229.474 118.777 232.482 113.532 236.528 108.841C238.319 106.549 240.181 105.403 242.114 105.403C243.045 105.403 244.012 105.6 245.015 105.994C247.378 106.961 248.56 108.519 248.56 110.667C248.56 110.989 248.452 111.508 248.237 112.225C246.769 115.125 244.406 118.473 241.147 122.269C237.889 126.064 234.577 129.09 231.211 131.346C230.065 135.499 229.492 138.74 229.492 141.067C229.492 143.395 229.546 144.881 229.653 145.525C229.976 147.029 231.175 147.781 233.252 147.781C235.329 147.781 237.728 146.832 240.449 144.935C243.171 143.001 246.071 140.459 249.15 137.308C252.23 134.157 253.966 132.384 254.36 131.99C254.79 131.596 255.059 131.328 255.166 131.185ZM263.223 123.182C263.939 123.074 265.479 121.535 267.842 118.562C270.205 115.59 271.387 113.263 271.387 111.58C271.387 111.329 271.297 111.043 271.118 110.721C270.402 111.437 268.898 113.478 266.606 116.844C264.351 120.21 263.223 122.322 263.223 123.182ZM284.6 131.185C286.39 129.251 287.393 128.911 287.607 130.164C287.607 130.63 287.321 131.399 286.748 132.474C284.993 135.732 282.308 139.188 278.691 142.84C272.962 148.641 267.896 151.541 263.491 151.541C261.414 151.541 259.642 150.95 258.174 149.769C255.417 147.513 254.038 143.592 254.038 138.006C254.038 134.819 255.005 130.343 256.938 124.578C258.908 118.777 261.916 113.532 265.962 108.841C267.752 106.549 269.614 105.403 271.548 105.403C272.479 105.403 273.446 105.6 274.448 105.994C276.812 106.961 277.993 108.519 277.993 110.667C277.993 110.989 277.886 111.508 277.671 112.225C276.203 115.125 273.84 118.473 270.581 122.269C267.323 126.064 264.01 129.09 260.645 131.346C259.499 135.499 258.926 138.74 258.926 141.067C258.926 143.395 258.979 144.881 259.087 145.525C259.409 147.029 260.609 147.781 262.686 147.781C264.762 147.781 267.161 146.832 269.883 144.935C272.604 143.001 275.505 140.459 278.584 137.308C281.663 134.157 283.4 132.384 283.794 131.99C284.224 131.596 284.492 131.328 284.6 131.185Z" fill="url(#paint2_linear_209251_4837)"/>
<defs>
<linearGradient id="paint0_linear_209251_4837" x1="141.592" y1="87.7547" x2="15.8758" y2="90.0609" gradientUnits="userSpaceOnUse">
<stop offset="0.0825" stop-color="#D6A281"/>
<stop offset="0.215" stop-color="#C75E1D"/>
<stop offset="0.365" stop-color="#704264"/>
<stop offset="0.67" stop-color="#704264"/>
<stop offset="0.9" stop-color="#C75E1D"/>
<stop offset="1" stop-color="#D6A281"/>
</linearGradient>
<linearGradient id="paint1_linear_209251_4837" x1="108.21" y1="130.047" x2="150.982" y2="149.733" gradientUnits="userSpaceOnUse">
<stop offset="0.07" stop-color="#C76A32"/>
<stop offset="0.47" stop-color="#704264"/>
<stop offset="0.63" stop-color="#C77647"/>
<stop offset="0.851573" stop-color="#ECCE96"/>
</linearGradient>
<linearGradient id="paint2_linear_209251_4837" x1="261.184" y1="39.8846" x2="212.096" y2="187.535" gradientUnits="userSpaceOnUse">
<stop offset="0.225" stop-color="#704264"/>
<stop offset="0.3825" stop-color="#D09C7B"/>
<stop offset="0.54" stop-color="#C75E1D"/>
<stop offset="0.72" stop-color="#C75E1D"/>
<stop offset="0.945" stop-color="#704264" stop-opacity="0.8"/>
</linearGradient>
</defs>
</svg>
