<svg width="247" height="145" viewBox="0 0 247 145" fill="none" xmlns="http://www.w3.org/2000/svg">
<path d="M8.29143 79.681C8.96585 113.073 39.751 138.089 75.1112 137.452C110.471 136.816 140.224 110.711 139.55 77.319C138.875 43.9271 108.09 18.9113 72.7299 19.5476C37.3697 20.1839 7.61701 46.2891 8.29143 79.681Z" stroke="url(#paint0_linear_209364_4760)" stroke-width="15" stroke-linejoin="round"/>
<path d="M142.093 135.511C144.566 136.74 147.506 135.703 148.661 133.194C149.816 130.686 148.747 127.656 146.274 126.427L142.093 135.511ZM146.274 126.427L104.091 105.459L99.9102 114.543L142.093 135.511L146.274 126.427Z" fill="url(#paint1_linear_209364_4760)"/>
<path d="M162.101 101.082C167.008 101.074 170.505 100.044 172.592 97.9929C174.679 95.8988 175.72 93.0598 175.714 89.4758C175.709 86.1052 174.382 83.526 171.734 81.7382C169.086 79.9505 164.732 79.0615 158.674 79.0712L156.37 79.0749C155.986 79.0755 155.73 79.1399 155.602 79.2681C155.517 79.3963 155.475 79.631 155.475 79.9723L155.504 97.9563C155.506 98.9377 155.613 99.6201 155.827 100.004C156.041 100.345 156.532 100.579 157.301 100.705C157.813 100.833 158.602 100.917 159.669 100.958C160.736 101.041 161.546 101.083 162.101 101.082ZM162.033 58.9058C161.479 58.9067 160.689 58.9293 159.665 58.9736C158.642 59.0179 157.81 59.1046 157.17 59.2336C156.445 59.3628 155.976 59.6408 155.763 60.0679C155.551 60.4949 155.445 61.1777 155.446 62.1164L155.469 75.8123C155.469 76.1963 155.512 76.4523 155.598 76.5801C155.726 76.7079 155.982 76.7715 156.366 76.7709L158.67 76.7672C163.833 76.7589 167.565 75.9209 169.866 74.2532C172.167 72.5428 173.316 70.2797 173.311 67.4637C173.307 64.733 172.386 62.6438 170.549 61.1961C168.755 59.7483 165.916 58.9849 162.033 58.9058ZM145.969 58.6116C145.798 58.6119 145.649 58.5694 145.521 58.4843C145.393 58.3992 145.328 58.1646 145.328 57.7806C145.327 57.482 145.391 57.2685 145.518 57.1403C145.646 57.0121 145.838 56.9478 146.094 56.9474C147.118 56.9031 148.313 56.8585 149.678 56.8136C151.043 56.7261 152.408 56.6599 153.774 56.615C155.139 56.5702 156.462 56.5254 157.741 56.4807C159.021 56.4359 160.088 56.4129 160.941 56.4115C166.659 56.4023 170.841 57.3343 173.49 59.2074C176.181 61.0804 177.529 63.6382 177.534 66.8809C177.539 69.6115 176.753 71.8315 175.177 73.5407C173.644 75.2498 171.448 76.4267 168.591 77.0713C168.335 77.1997 168.207 77.3492 168.207 77.5199C168.207 77.6479 168.357 77.733 168.656 77.7752C172.198 78.2388 174.994 79.5143 177.046 81.6017C179.097 83.6891 180.126 86.3967 180.131 89.7247C180.138 94.0767 178.757 97.471 175.987 99.9074C173.218 102.344 168.718 103.567 162.489 103.577C161.422 103.579 160.377 103.58 159.353 103.582C158.372 103.584 157.476 103.564 156.665 103.522C155.854 103.481 155.172 103.44 154.617 103.398C154.062 103.399 153.7 103.399 153.529 103.4C153.358 103.4 152.889 103.422 152.121 103.466C151.396 103.51 150.585 103.554 149.689 103.598C148.793 103.642 147.94 103.664 147.129 103.666C146.319 103.71 145.785 103.732 145.529 103.732C145.273 103.733 145.081 103.669 144.953 103.541C144.825 103.456 144.761 103.243 144.76 102.902C144.759 102.56 144.823 102.347 144.951 102.261C145.079 102.176 145.228 102.112 145.399 102.069C145.74 102.068 146.103 102.046 146.487 102.003C146.871 101.96 147.254 101.895 147.638 101.809C148.022 101.766 148.406 101.68 148.79 101.551C149.174 101.465 149.579 101.315 150.005 101.101C150.261 100.973 150.538 100.652 150.836 100.14C151.176 99.6699 151.346 98.987 151.344 98.091L151.287 62.2511C151.285 61.3977 151.135 60.694 150.835 60.1398C150.536 59.5429 150.066 59.1383 149.425 58.926C148.913 58.7989 148.358 58.7144 147.761 58.6727C147.164 58.631 146.566 58.6106 145.969 58.6116ZM191.817 84.7614C192.233 84.6983 193.128 83.801 194.5 82.0696C195.872 80.3383 196.558 78.983 196.556 78.0038C196.556 77.858 196.503 77.6914 196.399 77.5041C195.983 77.9214 195.11 79.1103 193.78 81.0708C192.47 83.0312 191.816 84.2614 191.817 84.7614ZM204.262 89.3977C205.302 88.271 205.885 88.0722 206.011 88.8011C206.011 89.072 205.845 89.5202 205.513 90.1457C204.495 92.0432 202.936 94.0561 200.835 96.1845C197.507 99.5648 194.562 101.257 192 101.261C190.791 101.263 189.76 100.921 188.904 100.235C187.298 98.925 186.492 96.645 186.487 93.395C186.484 91.5409 187.042 88.9358 188.162 85.5798C189.302 82.203 191.047 79.1481 193.397 76.4151C194.437 75.0801 195.519 74.4117 196.644 74.4099C197.186 74.4091 197.748 74.5227 198.332 74.751C199.708 75.3113 200.397 76.2164 200.399 77.4664C200.399 77.6539 200.337 77.9561 200.213 78.3729C199.361 80.0618 197.99 82.0119 196.097 84.2233C194.205 86.4347 192.281 88.1982 190.325 89.5138C189.662 91.9316 189.331 93.8175 189.334 95.1717C189.336 96.5259 189.368 97.3904 189.432 97.7653C189.62 98.64 190.319 99.0764 191.527 99.0744C192.736 99.0725 194.131 98.5182 195.712 97.4115C197.294 96.2839 198.979 94.802 200.768 92.9658C202.556 91.1296 203.565 90.0967 203.794 89.8672C204.044 89.6376 204.2 89.4811 204.262 89.3977ZM208.942 84.7339C209.358 84.6708 210.253 83.7735 211.625 82.0421C212.997 80.3107 213.683 78.9555 213.681 77.9763C213.681 77.8305 213.628 77.6639 213.524 77.4766C213.108 77.8939 212.235 79.0828 210.905 81.0433C209.595 83.0037 208.941 84.2339 208.942 84.7339ZM221.387 89.3702C222.427 88.2435 223.01 88.0447 223.136 88.7736C223.136 89.0445 222.97 89.4926 222.638 90.1182C221.62 92.0156 220.061 94.0286 217.96 96.1569C214.632 99.5373 211.687 101.23 209.125 101.234C207.916 101.236 206.885 100.894 206.029 100.207C204.423 98.8975 203.617 96.6175 203.612 93.3675C203.609 91.5133 204.167 88.9083 205.287 85.5523C206.427 82.1755 208.172 79.1206 210.522 76.3876C211.562 75.0526 212.644 74.3842 213.769 74.3824C214.311 74.3815 214.873 74.4952 215.457 74.7234C216.833 75.2837 217.522 76.1889 217.524 77.4389C217.524 77.6264 217.462 77.9286 217.338 78.3454C216.486 80.0343 215.115 81.9844 213.222 84.1958C211.33 86.4072 209.406 88.1707 207.45 89.4863C206.787 91.9041 206.456 93.79 206.459 95.1442C206.461 96.4983 206.493 97.3629 206.557 97.7378C206.745 98.6125 207.444 99.0489 208.652 99.0469C209.861 99.045 211.256 98.4906 212.837 97.3839C214.419 96.2564 216.104 94.7745 217.893 92.9383C219.681 91.1021 220.69 90.0692 220.919 89.8397C221.169 89.6101 221.325 89.4536 221.387 89.3702Z" fill="url(#paint2_linear_209364_4760)"/>
<defs>
<linearGradient id="paint0_linear_209364_4760" x1="132.051" y1="77.4539" x2="15.7954" y2="79.802" gradientUnits="userSpaceOnUse">
<stop offset="0.0825" stop-color="#D6A281"/>
<stop offset="0.215" stop-color="#C75E1D"/>
<stop offset="0.365" stop-color="#704264"/>
<stop offset="0.67" stop-color="#704264"/>
<stop offset="0.9" stop-color="#C75E1D"/>
<stop offset="1" stop-color="#D6A281"/>
</linearGradient>
<linearGradient id="paint1_linear_209364_4760" x1="102.21" y1="109.547" x2="144.982" y2="129.233" gradientUnits="userSpaceOnUse">
<stop offset="0.07" stop-color="#C76A32"/>
<stop offset="0.47" stop-color="#704264"/>
<stop offset="0.63" stop-color="#C77647"/>
<stop offset="0.851573" stop-color="#ECCE96"/>
</linearGradient>
<linearGradient id="paint2_linear_209364_4760" x1="223.133" y1="37.4907" x2="203.84" y2="118.316" gradientUnits="userSpaceOnUse">
<stop offset="0.225" stop-color="#704264"/>
<stop offset="0.3825" stop-color="#D09C7B"/>
<stop offset="0.54" stop-color="#C75E1D"/>
<stop offset="0.72" stop-color="#C75E1D"/>
<stop offset="0.945" stop-color="#704264" stop-opacity="0.8"/>
</linearGradient>
</defs>
</svg>
