<svg width="237" height="143" viewBox="0 0 237 143" fill="none" xmlns="http://www.w3.org/2000/svg">
<path d="M29.2833 72.5389C29.7889 100.778 53.1206 123.186 81.3731 122.612C109.626 122.039 132.138 98.7001 131.633 70.4611C131.127 42.2221 107.795 19.8143 79.543 20.3879C51.2905 20.9614 28.7777 44.2999 29.2833 72.5389Z" stroke="url(#paint0_linear_209364_4760)" stroke-width="15" stroke-linejoin="round"/>
<path d="M131.361 120.602C133.77 121.953 136.568 120.975 137.611 118.418C138.654 115.861 137.547 112.694 135.139 111.343L131.361 120.602ZM135.139 111.343L103.445 93.5704L99.6671 102.829L131.361 120.602L135.139 111.343Z" fill="url(#paint1_linear_209364_4760)"/>
<path d="M152.101 101.082C157.008 101.074 160.505 100.044 162.592 97.9929C164.679 95.8988 165.72 93.0598 165.714 89.4758C165.709 86.1052 164.382 83.526 161.734 81.7382C159.086 79.9505 154.732 79.0615 148.674 79.0712L146.37 79.0749C145.986 79.0755 145.73 79.1399 145.602 79.2681C145.517 79.3963 145.475 79.631 145.475 79.9723L145.504 97.9563C145.506 98.9377 145.613 99.6201 145.827 100.004C146.041 100.345 146.532 100.579 147.301 100.705C147.813 100.833 148.602 100.917 149.669 100.958C150.736 101.041 151.546 101.083 152.101 101.082ZM152.033 58.9058C151.479 58.9067 150.689 58.9293 149.665 58.9736C148.642 59.0179 147.81 59.1046 147.17 59.2336C146.445 59.3628 145.976 59.6408 145.763 60.0679C145.551 60.4949 145.445 61.1777 145.446 62.1164L145.469 75.8123C145.469 76.1963 145.512 76.4523 145.598 76.5801C145.726 76.7079 145.982 76.7715 146.366 76.7709L148.67 76.7672C153.833 76.7589 157.565 75.9209 159.866 74.2532C162.167 72.5428 163.316 70.2797 163.311 67.4637C163.307 64.733 162.386 62.6438 160.549 61.1961C158.755 59.7483 155.916 58.9849 152.033 58.9058ZM135.969 58.6116C135.798 58.6119 135.649 58.5694 135.521 58.4843C135.393 58.3992 135.328 58.1646 135.328 57.7806C135.327 57.482 135.391 57.2685 135.518 57.1403C135.646 57.0121 135.838 56.9478 136.094 56.9474C137.118 56.9031 138.313 56.8585 139.678 56.8136C141.043 56.7261 142.408 56.6599 143.774 56.615C145.139 56.5702 146.462 56.5254 147.741 56.4807C149.021 56.4359 150.088 56.4129 150.941 56.4115C156.659 56.4023 160.841 57.3343 163.49 59.2074C166.181 61.0804 167.529 63.6382 167.534 66.8809C167.539 69.6115 166.753 71.8315 165.177 73.5407C163.644 75.2498 161.448 76.4267 158.591 77.0713C158.335 77.1997 158.207 77.3492 158.207 77.5199C158.207 77.6479 158.357 77.733 158.656 77.7752C162.198 78.2388 164.994 79.5143 167.046 81.6017C169.097 83.6891 170.126 86.3967 170.131 89.7247C170.138 94.0767 168.757 97.471 165.987 99.9074C163.218 102.344 158.718 103.567 152.489 103.577C151.422 103.579 150.377 103.58 149.353 103.582C148.372 103.584 147.476 103.564 146.665 103.522C145.854 103.481 145.172 103.44 144.617 103.398C144.062 103.399 143.7 103.399 143.529 103.4C143.358 103.4 142.889 103.422 142.121 103.466C141.396 103.51 140.585 103.554 139.689 103.598C138.793 103.642 137.94 103.664 137.129 103.666C136.319 103.71 135.785 103.732 135.529 103.732C135.273 103.733 135.081 103.669 134.953 103.541C134.825 103.456 134.761 103.243 134.76 102.902C134.759 102.56 134.823 102.347 134.951 102.261C135.079 102.176 135.228 102.112 135.399 102.069C135.74 102.068 136.103 102.046 136.487 102.003C136.871 101.96 137.254 101.895 137.638 101.809C138.022 101.766 138.406 101.68 138.79 101.551C139.174 101.465 139.579 101.315 140.005 101.101C140.261 100.973 140.538 100.652 140.836 100.14C141.176 99.6699 141.346 98.987 141.344 98.091L141.287 62.2511C141.285 61.3977 141.135 60.694 140.835 60.1398C140.536 59.5429 140.066 59.1383 139.425 58.926C138.913 58.7989 138.358 58.7144 137.761 58.6727C137.164 58.631 136.566 58.6106 135.969 58.6116ZM181.817 84.7614C182.233 84.6983 183.128 83.801 184.5 82.0696C185.872 80.3383 186.558 78.983 186.556 78.0038C186.556 77.858 186.503 77.6914 186.399 77.5041C185.983 77.9214 185.11 79.1103 183.78 81.0708C182.47 83.0312 181.816 84.2614 181.817 84.7614ZM194.262 89.3977C195.302 88.271 195.885 88.0722 196.011 88.8011C196.011 89.072 195.845 89.5202 195.513 90.1457C194.495 92.0432 192.936 94.0561 190.835 96.1845C187.507 99.5648 184.562 101.257 182 101.261C180.791 101.263 179.76 100.921 178.904 100.235C177.298 98.925 176.492 96.645 176.487 93.395C176.484 91.5409 177.042 88.9358 178.162 85.5798C179.302 82.203 181.047 79.1481 183.397 76.4151C184.437 75.0801 185.519 74.4117 186.644 74.4099C187.186 74.4091 187.748 74.5227 188.332 74.751C189.708 75.3113 190.397 76.2164 190.399 77.4664C190.399 77.6539 190.337 77.9561 190.213 78.3729C189.361 80.0618 187.99 82.0119 186.097 84.2233C184.205 86.4347 182.281 88.1982 180.325 89.5138C179.662 91.9316 179.331 93.8175 179.334 95.1717C179.336 96.5259 179.368 97.3904 179.432 97.7653C179.62 98.64 180.319 99.0764 181.527 99.0744C182.736 99.0725 184.131 98.5182 185.712 97.4115C187.294 96.2839 188.979 94.802 190.768 92.9658C192.556 91.1296 193.565 90.0967 193.794 89.8672C194.044 89.6376 194.2 89.4811 194.262 89.3977ZM198.942 84.7339C199.358 84.6708 200.253 83.7735 201.625 82.0421C202.997 80.3107 203.683 78.9555 203.681 77.9763C203.681 77.8305 203.628 77.6639 203.524 77.4766C203.108 77.8939 202.235 79.0828 200.905 81.0433C199.595 83.0037 198.941 84.2339 198.942 84.7339ZM211.387 89.3702C212.427 88.2435 213.01 88.0447 213.136 88.7736C213.136 89.0445 212.97 89.4926 212.638 90.1182C211.62 92.0156 210.061 94.0286 207.96 96.1569C204.632 99.5373 201.687 101.23 199.125 101.234C197.916 101.236 196.885 100.894 196.029 100.207C194.423 98.8975 193.617 96.6175 193.612 93.3675C193.609 91.5133 194.167 88.9083 195.287 85.5523C196.427 82.1755 198.172 79.1206 200.522 76.3876C201.562 75.0526 202.644 74.3842 203.769 74.3824C204.311 74.3815 204.873 74.4952 205.457 74.7234C206.833 75.2837 207.522 76.1889 207.524 77.4389C207.524 77.6264 207.462 77.9286 207.338 78.3454C206.486 80.0343 205.115 81.9844 203.222 84.1958C201.33 86.4072 199.406 88.1707 197.45 89.4863C196.787 91.9041 196.456 93.79 196.459 95.1442C196.461 96.4983 196.493 97.3629 196.557 97.7378C196.745 98.6125 197.444 99.0489 198.652 99.0469C199.861 99.045 201.256 98.4906 202.837 97.3839C204.419 96.2564 206.104 94.7745 207.893 92.9383C209.681 91.1021 210.69 90.0692 210.919 89.8397C211.169 89.6101 211.325 89.4536 211.387 89.3702Z" fill="url(#paint2_linear_209364_4760)"/>
<defs>
<linearGradient id="paint0_linear_209364_4760" x1="124.134" y1="70.6133" x2="36.778" y2="72.1773" gradientUnits="userSpaceOnUse">
<stop offset="0.0825" stop-color="#D6A281"/>
<stop offset="0.215" stop-color="#C75E1D"/>
<stop offset="0.365" stop-color="#704264"/>
<stop offset="0.67" stop-color="#704264"/>
<stop offset="0.9" stop-color="#C75E1D"/>
<stop offset="1" stop-color="#D6A281"/>
</linearGradient>
<linearGradient id="paint1_linear_209364_4760" x1="101.745" y1="97.737" x2="135.132" y2="111.359" gradientUnits="userSpaceOnUse">
<stop offset="0.07" stop-color="#C76A32"/>
<stop offset="0.47" stop-color="#704264"/>
<stop offset="0.63" stop-color="#C77647"/>
<stop offset="0.851573" stop-color="#ECCE96"/>
</linearGradient>
<linearGradient id="paint2_linear_209364_4760" x1="213.133" y1="37.4907" x2="193.84" y2="118.316" gradientUnits="userSpaceOnUse">
<stop offset="0.225" stop-color="#704264"/>
<stop offset="0.3825" stop-color="#D09C7B"/>
<stop offset="0.54" stop-color="#C75E1D"/>
<stop offset="0.72" stop-color="#C75E1D"/>
<stop offset="0.945" stop-color="#704264" stop-opacity="0.8"/>
</linearGradient>
</defs>
</svg>
